<?xml version="1.0" encoding="utf-8"?>
<!-- Generator: Adobe Illustrator 19.1.0, SVG Export Plug-In . SVG Version: 6.00 Build 0)  -->
<svg version="1.1" id="Layer_1" xmlns="http://www.w3.org/2000/svg" xmlns:xlink="http://www.w3.org/1999/xlink" x="0px" y="0px"
	 viewBox="-968 714 110 110" style="enable-background:new -968 714 110 110;" xml:space="preserve">
<style type="text/css">
	.st0{fill:#517891;}
</style>
<g>
	<path class="st0" d="M-863,739.8c0,2.3-1.9,4.2-4.2,4.2h-91.7c-2.3,0-4.2-1.9-4.2-4.2v-8.3c0-2.3,1.9-4.2,4.2-4.2h91.7
		c2.3,0,4.2,1.9,4.2,4.2V739.8z M-863,773.2c0,2.3-1.9,4.2-4.2,4.2h-91.7c-2.3,0-4.2-1.9-4.2-4.2v-8.3c0-2.3,1.9-4.2,4.2-4.2h91.7
		c2.3,0,4.2,1.9,4.2,4.2V773.2z M-863,806.5c0,2.3-1.9,4.2-4.2,4.2h-91.7c-2.3,0-4.2-1.9-4.2-4.2v-8.3c0-2.3,1.9-4.2,4.2-4.2h91.7
		c2.3,0,4.2,1.9,4.2,4.2V806.5z"/>
</g>
</svg>
